<?xml version="1.0" encoding="UTF-8" standalone="no"?>
<svg
   xmlns:svg="http://www.w3.org/2000/svg"
   xmlns="http://www.w3.org/2000/svg"
   width="900.0"
   height="600.0"

>
    <g transform="scale(2.4257517284032906, -2.4257517284032906)   translate(51.92243374442413,-177.09177329597384)" stroke-width="0.3"  fill="none">
       <!-- hidden lines -->
       <g  stroke="rgb(180,180,180)" fill="none" stroke-dasharray="0.3,0.3" >

       </g>

       <!-- solid lines -->
       <g  stroke="rgb(30,30,30)" fill="none">
			<path d="M-30.10000032186512,11.115118645434798 L-30.024337593527854,11.068421411734446 " />
			<path d="M-27.640831589528243,3.9621794787717888 L-27.683343542930135,3.8542680247591043 L-27.729103745196724,3.7507060093560862 L-27.77805068965219,3.6516326311456204 L-27.83011858629353,3.5571810554952927 L-27.88523745021944,3.4674782355686835 L-27.943333195697623,3.382644741686545 L-28.00432773574406,3.3027945992672154 L-28.068139087080365,3.2280351355640775 L-28.13468148032822,3.1584668354060983 L-28.203865475292726,3.094183206135311 L-28.27559808117972,3.035270651922808 L-28.349782881585483,2.9818083576321595 L-28.426320164090864,2.9338681823863686 L-28.505107054285567,2.891514562981416 L-28.586037654042542,2.8548044272762114 L-28.669003183856514,2.823787117675387 " />
			<path d="M-28.669003183856535,2.823787117675381 L-28.725623657887493,2.806225554324511 L-28.783072005029574,2.7912444947543804 L-28.8413136205466,2.7788529629950958 L-28.90031342186717,2.7690584232420408 L-28.960035869717117,2.761866775359719 L-29.02044498952702,2.7572823513279037 L-29.08150439310195,2.755307912632208 L-29.143177300540355,2.755944648600673 L-29.205426562388887,2.759192175687361 L-29.268214682019856,2.7650485377033887 L-29.331503838217806,2.773510206995259 L-29.395255907961566,2.784572086569794 L-29.45943248938817,2.7982275131643677 L-29.523994924924686,2.8144682612606093 L-29.58890432457409,2.8332845480391464 L-29.654121589341152,2.85466503927241 L-29.719607434784205,2.8785968561519484 L-29.78532241467863,2.9050655830461425 L-29.851226944777782,2.9340552761836403 L-29.917281326657054,2.9655484732572894 L-29.983445771626737,2.9995262039427812 L-30.049680424699226,3.0359680013256574 L-30.115945388596185,3.074851914229824 L-30.182200747781174,3.116154520440108 L-30.248406592503258,3.1598509408109337 L-30.31452304283718,3.2059148542525837 L-30.446328533868396,3.3050327622568543 L-30.577299689902127,3.4132694607308336 L-30.70712098995177,3.5303641979874834 L-30.8354796831345,3.656034882548465 L-30.96206654211555,3.7899787627272175 L-31.086576608063933,3.9318731559842925 L-31.20870992532499,4.081376226297854 L-31.328172264039814,4.2381278076765945 L-31.444675828970787,4.401750271831152 L-31.55793995282548,4.571849437913747 L-31.667691772408755,4.7480155221343585 L-31.773666885974116,4.929824124965771 L-31.875609990190664,5.116837253559211 L-31.973275495191178,5.308604376907482 L-32.06642811621962,5.504663511213622 L-32.15484344045274,5.704542332850337 L-32.23830846763017,5.907759316228983 L-32.31662212319078,6.113824893836898 L-32.38959574267886,6.322242635648412 L-32.457053526253326,6.5325104450682625 L-32.51883296220494,6.744121768526272 L-32.574785218461265,6.956566815809266 L-32.62477550113613,7.169333788190354 L-32.668683379259946,7.3819101113968815 L-32.70640307490843,7.593783670446758 L-32.737843718030916,7.804444043378302 L-32.762929565364246,8.01338373090145 L-32.78160018290493,8.220099379008007 L-32.79381059149996,8.424092991595526 L-32.79953137520554,8.624873130183557 L-32.79874875215262,8.821956097831977 L-32.791464607748686,9.014867104409294 L-32.77769649013564,9.203141410403655 L-32.75747756791474,9.386325446521035 L-32.730856550240595,9.563977906373403 L-32.6978975694765,9.735670809624454 L-32.658680026693986,9.900990533031738 L-32.61329840038867,10.059538806901267 L-32.58832964790166,10.13615362613071 L-32.56186201887327,10.210933674554102 L-32.53391145641355,10.283833907466475 L-32.50449479689617,10.354810412493439 L-32.47362975981687,10.423820436042352 L-32.441334937119876,10.490822409055474 L-32.407629781998786,10.55577597204963 L-32.372534597178735,10.618641999427242 L-32.33607052268677,10.67938262304413 L-32.29825952311788,10.737961255019865 L-32.25912437440435,10.79434260977694 L-32.21868865009643,10.848492725295486 L-32.17697670716244,10.900378983570716 L-32.1340136713171,10.949970130260798 L-32.0898254218867,10.9972362935133 L-32.04443857622041,11.04214900195887 L-31.997880473656917,11.08468120186134 L-31.950179159056297,11.124807273413866 L-31.901363365906796,11.162503046171357 L-31.85146249901687,11.197745813609838 L-31.800506616802814,11.230514346804021 L-31.748526413182713,11.260788907214799 L-31.695553199087563,11.28855125857902 L-31.64161888360074,11.313784677894326 L-31.586755954737157,11.336473965492456 L-31.530997459873717,11.356605454194966 " />
			<path d="M-31.530997459873706,11.35660545419497 L-31.450206277255802,11.380811301282908 L-31.367769523207077,11.399787936144588 L-31.28378766800525,11.413512230894916 L-31.19836306502913,11.421967458969142 L-31.111599826014853,11.425143315508432 L-31.02360369416907,11.423035929919 L-30.9344819152938,11.415647870589389 L-30.844343107080007,11.402988141760266 L-30.753297126729105,11.385072172550423 L-30.661454937063887,11.361921798152462 L-30.568928471291915,11.33356523322102 L-30.47583049658627,11.300037037486 L-30.382274476649897,11.261378073632685 L-30.28837443343107,11.217635457500116 L-30.194244808158434,11.168862500658374 L-30.100000321865135,11.115118645434805 " />
			<path d="M25.100000035762804,29.629761619085105 L25.2089404866132,29.561524490577888 L25.317703511635504,29.486843308019473 L25.426111973966115,29.40583970089235 L25.53398931419986,29.318645595693628 L25.641159837943388,29.225403001072976 L25.747449001959765,29.126263776550307 L25.852683698438295,29.021389385189806 L25.95669253692647,28.91095063063317 L26.05930612346498,28.795127378920323 L26.160357336471126,28.674108265550643 L26.259681598921333,28.548090388261816 L26.357117146389456,28.417278986026687 L26.452505290504362,28.28188710479086 L26.545690677397687,28.142135250495514 L26.636521540720874,27.99825102995045 L26.72484994881936,27.850468780142357 L26.810532045661446,27.699029186581953 L26.89342828512935,27.54417889131161 L26.973403658290945,27.38617009121188 L27.05032791328203,27.225260127261116 L27.124075767440964,27.0617110654172 L27.194527111350233,26.89578926980389 L27.261567204452632,26.727764968896984 L27.325086861923396,26.55791181541682 L27.384982632494072,26.386506440643846 L27.441156966938355,26.21382800388319 L27.493518376945623,26.040157737811963 L27.541981584123334,25.865778490449728 L27.586467658885663,25.69097426449819 L27.626904149002122,25.5160297548003 L27.663225197596887,25.341229884672074 L27.69537165040656,25.166859341862335 L27.723291152121742,24.993202114896135 L27.74693823165549,24.820541030556907 L27.766274376199792,24.649157293260732 L27.781268093949436,24.479330027072876 L27.791894965391126,24.31133582111246 L27.798137683074312,24.14544827908569 L27.799986079798973,23.981937573681282 L27.797437145174413,23.82107000655379 L27.790495030522138,23.663107574611516 L27.779171042114807,23.508307543315336 L27.76348362276228,23.356922027683403 L27.743458321774725,23.209197581684077 L27.719127753351763,23.06537479668593 L27.690531543465355,22.925687909618667 L27.657716265322975,22.790364421483236 L27.620735363516165,22.659624726832412 L27.57964906697804,22.53368175482527 L27.534524290891433,22.412740622440193 L27.485434527707515,22.296998300411165 L27.432459727452347,22.18664329243146 L27.375686167516285,22.081855328147164 L27.315206312138343,21.982805070440552 L27.251118661814346,21.889653837480036 L27.18352759287412,21.802553339989384 L27.112543187489035,21.721645434164113 L27.038281054386687,21.64706189063744 L26.96086214056482,21.57892417987206 L26.880412534311002,21.517343274327377 L26.79706325984901,21.46241946772418 L26.71095006394625,21.414242211701357 L26.622213194829843,21.372889970130487 L26.53099717377141,21.338430091325694 " />
			<path d="M26.53099717377139,21.338430091325687 L26.474376699740432,21.320868527974817 L26.41692835259835,21.305887468404688 L26.358686737081324,21.293495936645403 L26.299686935760754,21.283701396892347 L26.239964487910807,21.276509749010025 L26.179555368100903,21.27192532497821 L26.118495964525973,21.269950886282516 L26.05682305708757,21.27058762225098 L25.994573795239038,21.273835149337668 L25.93178567560807,21.279691511353697 L25.868496519410122,21.288153180645565 L25.80474444966636,21.2992150602201 L25.740567868239754,21.312870486814674 L25.67600543270324,21.329111234910915 L25.611096033053833,21.347927521689453 L25.545878768286773,21.369308012922716 L25.48039292284372,21.393239829802255 L25.414677942949293,21.41970855669645 L25.348773412850143,21.448698249833946 L25.28271903097087,21.480191446907597 L25.216554586001187,21.51416917759309 L25.1503199329287,21.550610974975964 L25.08405496903174,21.58949488788013 L25.01779960984675,21.630797494090416 L24.951593765124667,21.67449391446124 L24.885477314790744,21.72055782790289 L24.75367182375953,21.81967573590716 L24.6227006677258,21.927912434381142 L24.492879367676156,22.04500717163779 L24.364520674493424,22.170677856198772 L24.237933815512374,22.304621736377523 L24.113423749563992,22.4465161296346 L23.991290432302936,22.59601919994816 L23.87182809358811,22.752770781326902 L23.755324528657138,22.91639324548146 L23.642060404802447,23.086492411564052 L23.53230858521917,23.262658495784663 L23.426333471653805,23.444467098616077 L23.32439036743726,23.63148022720952 L23.226724862436747,23.82324735055779 L23.133572241408302,24.01930648486393 L23.04515691717519,24.21918530650064 L22.96169188999776,24.42240228987929 L22.883378234437146,24.628467867487206 L22.810404614949064,24.83688560929872 L22.7429468313746,25.04715341871857 L22.68116739542298,25.258764742176577 L22.625215139166663,25.47120978945957 L22.575224856491797,25.68397676184066 L22.531316978367983,25.896553085047188 L22.493597282719495,26.108426644097065 L22.46215663959701,26.319087017028608 L22.43707079226368,26.528026704551756 L22.418400174722994,26.734742352658312 L22.40618976612796,26.938735965245833 L22.40046898242239,27.139516103833863 L22.40125160547531,27.336599071482283 L22.408535749879235,27.5295100780596 L22.422303867492285,27.71778438405396 L22.442522789713184,27.900968420171342 L22.46914380738733,28.07862088002371 L22.502102788151422,28.25031378327476 L22.541320330933935,28.415633506682045 L22.586701957239256,28.574181780551573 L22.611670709726265,28.650796599781017 L22.63813833875465,28.72557664820441 L22.666088901214376,28.79847688111678 L22.695505560731753,28.869453386143746 L22.72637059781105,28.93846340969266 L22.758665420508052,29.00546538270578 L22.79237057562914,29.070418945699934 L22.827465760449186,29.133284973077547 L22.863929834941157,29.194025596694438 L22.90174083451005,29.252604228670172 L22.94087598322357,29.308985583427248 L22.981311707531493,29.363135698945793 L23.023023650465483,29.415021957221022 L23.065986686310826,29.464613103911105 L23.110174935741224,29.511879267163607 L23.155561781407517,29.556791975609176 L23.202119883971008,29.599324175511647 L23.249821198571627,29.639450247064172 L23.29863699172113,29.677146019821663 L23.348537858611056,29.712388787260146 L23.39949374082511,29.74515732045433 L23.451473944445212,29.775431880865106 L23.504447158540362,29.803194232229327 L23.558381474027186,29.828427651544633 L23.613244402890768,29.851116939142763 L23.669002897754208,29.871248427845273 " />
			<path d="M23.66900289775422,29.871248427845277 L23.749794080372126,29.895454274933215 L23.832230834420848,29.914430909794895 L23.916212689622675,29.928155204545224 L24.001637292598794,29.93661043261945 L24.088400531613072,29.93978628915874 L24.176396663458856,29.937678903569306 L24.265518442334123,29.930290844239696 L24.355657250547917,29.917631115410572 L24.44670323089882,29.89971514620073 L24.538545420564038,29.87656477180277 L24.63107188633601,29.848208206871327 L24.724169861041656,29.814680011136307 L24.817725880978028,29.776021047282992 L24.911625924196855,29.732278431150423 L25.00575554946949,29.68350547430868 L25.10000003576279,29.629761619085112 " />
			<path d="M18.769996159635056,131.33021886756774 L18.769342390497854,131.15550321977588 L18.76553489498085,130.9806295181568 L18.758575505980176,130.80568194543145 L18.74846757368684,130.63074471988165 L18.73521596397395,130.4559020548082 L18.71882705605435,130.2812381179913 L18.699308739409705,130.10683699117286 L18.676670409992553,129.9327826295803 L18.65092296570321,129.7591588215111 L18.622078801143594,129.5860491479981 L18.590151801650563,129.41353694257393 L18.55515733661164,129.24170525115522 L18.51711225206632,129.07063679206493 L18.476034862596528,128.90041391621241 L18.431944942510132,128.73111856745035 L18.384863716321753,128.5628322431278 L18.334813848535482,128.39563595485797 L18.281819432734352,128.2296101895199 L18.225905979981924,128.0648348705128 L18.167100406541444,127.90138931928168 L18.1054310209186,127.73935221713243 L18.04092751023405,127.57880156735561 L17.973620925932273,127.41981465767608 L17.90354366883369,127.26246802304752 L17.830729473537176,127.106837408809 L17.755213392180494,126.95299773422195 L17.677031777566512,126.80102305640455 L17.59622226566326,126.65098653468135 L17.512823757486302,126.50296039536494 L17.426876400372105,126.35701589698678 L17.338421568651462,126.21322329599406 L17.24750184373223,126.0716518129287 L17.154160993601007,125.9323695991053 L17.05844395175359,125.79544370380354 L16.960396795564364,125.66094004199135 L16.860066724105064,125.52892336259391 L16.757502035423517,125.39945721732414 L16.652752103293388,125.27260393008935 L16.54586735344605,125.14842456698912 L16.436899239296068,125.02697890691857 L16.32590021717197,124.9083254127913 L16.212923721064193,124.79252120339582 L16.09802413690244,124.6796220258991 L15.981256776374732,124.56968222901033 L15.862677850300827,124.46275473681786 L15.742344441572829,124.35889102331205 L15.620314477675942,124.25814108760615 L15.496646702802678,124.16055342986708 L15.371400649573914,124.06617502796789 L15.244636610380367,123.97505131487303 L15.116415608358363,123.8872261567673 L14.986799368013807,123.80274183193896 L14.855850285508538,123.72163901042748 L14.723631398623331,123.64395673444514 L14.590206356412056,123.56973239958262 L14.455639388561554,123.49900173680693 L14.31999527447201,123.4317987952609 L14.183339312072698,123.36815592587222 L14.04573728638811,123.30810376577992 L13.907255437869598,123.25167122358596 L13.767960430507795,123.19888546543885 L13.627919319741117,123.14977190195614 L13.48719952017585,123.10435417599189 L13.345868773133352,123.06265415125523 " />
			<path d="M16.556200485939407,137.0925797319798 L16.68369703287921,136.96084042401796 L16.808111135471684,136.82486729069768 L16.92935691559122,136.6847541888855 L17.04735068207969,136.5405978331042 L17.162010988515117,136.3924977287745 L17.273258689430936,136.24055610353057 L17.381016994946947,136.0848778366562 L17.48521152377435,135.92557038669096 L17.585770354558193,135.76274371725555 L17.68262407552183,135.59651022114858 L17.775705832379124,135.42698464276603 L17.864951374481315,135.25428399889788 L17.950299099166685,135.07852749795603 L18.031690094282453,134.89983645768942 L18.109068178849487,134.71833422144323 L18.18237994184181,134.5341460730198 L18.251574779054113,134.34739915020032 L18.316604928031843,134.15822235698644 L18.37742550103972,133.96674627462318 L18.433994516045974,133.77310307146368 L18.486272925700867,133.5774264117388 L18.534224644289544,133.37985136329377 L18.57781657264055,133.18051430435642 L18.61701862097291,132.9795528294006 L18.651803729665883,132.77710565417019 L18.682147887937163,132.57331251992903 L18.70803015041656,132.36831409700324 L18.729432651603762,132.16225188768192 L18.746340618200197,131.95526812854374 L18.758742379306433,131.74750569227672 L18.766629374478143,131.53910798905883 L18.769996159635056,131.33021886756777 " />
			<path d="M23.875589483014355,130.612737991633 L23.661154993025963,129.64150524740097 L23.352598568114797,128.67692311037663 L22.95472393307121,127.73400856529874 L22.47372535284485,126.82744126752272 L21.917091197851672,125.97133500451447 L21.293487362150675,125.1790179669931 L20.612622349480777,124.46282525054457 L19.885096127550298,123.83390681812195 L19.12223510367332,123.30205391314466 L18.335915790915656,122.87554662566498 L17.53837990998339,122.56102498474965 L16.742043805418813,122.36338558396007 L15.959305143185478,122.2857053493055 L15.202349899048519,122.32919363647851 " />
			<path d="M15.202349899048492,122.32919363647851 L13.94382617136514,122.7085995036462 L12.86941273498718,123.45707114154553 L12.032985165974406,124.53707705690677 L11.476485435254483,125.8944612434218 L11.227818763066214,127.461158790036 L11.299454334694712,129.1586089398029 L11.68780004345443,130.90169445427858 L12.373382613917695,132.60300974727605 L13.321824073257975,134.17724376593043 L14.485565606357312,135.54545784311756 L15.806252353384657,136.63904401184288 L17.21765956613646,137.40316529518833 L18.64901339344209,137.79950546131434 L20.028539777587334,137.80819035931896 " />
			<path d="M20.028539777587387,137.80819035931896 L20.605687458681583,137.68709141264745 L21.153228627585587,137.49056238762492 L21.665742057211876,137.22054912601536 L22.138153331525263,136.87972503995832 L22.565785087539712,136.47146464240785 L22.944403326076994,135.99981013594476 L23.27025933276244,135.46943139076615 L23.54012679419644,134.88557970811345 L23.751333741812868,134.25403582692812 L23.901789007147112,133.58105268852313 L23.99000292657895,132.8732935259604 L24.015102090551835,132.13776589111262 L23.976837991235982,131.38175227261098 L23.875589483014373,130.61273799163314 " />
			<path d="M-30.10000032186512,-4.090143601563773 L-30.228668830769205,-4.0117750978740085 L-30.357299466976006,-3.930138804691132 L-30.485854368935808,-3.8452587511007765 L-30.614295697390748,-3.7571599209673137 L-30.74258564651256,-3.6658682455800173 L-30.870686455030445,-3.5714105960203666 L-30.99856041734585,-3.4738147752527277 L-31.126169894630856,-3.3731095099407424 L-31.253477325906903,-3.2693244419918246 L-31.38044523910062,-3.1624901198322677 L-31.507036262073456,-3.0526379894155413 L-31.633213133621926,-2.939800384966362 L-31.758938714445193,-2.8240105194633527 L-31.88417599807677,-2.705302474863024 L-32.0088881217771,-2.5837111920679883 L-32.133038377383876,-2.459272460642338 L-32.256590222116834,-2.3320229082772252 L-32.37950728933385,-2.2019999900097664 L-32.501753399235255,-2.0692419771983994 L-32.623292569513055,-1.9337879462579677 L-32.744089025942124,-1.7956777671578505 L-32.8641072129101,-1.6549520916865044 L-32.9833118038829,-1.5116523414858873 L-33.101667711802875,-1.3658206958592922 L-33.21914009941646,-1.2175000793561361 L-33.33569438952823,-1.066734149137429 L-33.45129627517851,-0.9135672821255794 L-33.56591172974138,-0.7580445619423495 L-33.67950701694017,-0.6002117656388091 L-33.79204870077751,-0.4401153502211592 L-33.90350365537699,-0.2778024389764351 L-34.013839074733525,-0.11332080760208996 L-34.123022482369606,0.053281129856458165 L-34.231021740894484,0.22195433525616792 L-34.33780506146364,0.392649160790417 L-34.44334101313559,0.565315363602501 L-34.547598532123345,0.7399021205742669 L-34.650546930937885,0.9163580432855483 L-34.75215590742074,1.0946311931400166 L-34.85239555366331,1.2746690966529286 L-34.95123636480995,1.4564187608963506 L-35.04864924774261,1.6398266890972648 L-35.144605529644146,1.824838896383973 L-35.239076966438006,2.0114009256761856 L-35.332035751101635,2.199457863714077 L-35.423454521851326,2.388954357221638 L-35.513306370195934,2.5798346291995387 L-35.60156484885725,2.772042495342699 L-35.773198260651114,3.160214335715567 L-35.9381526956102,3.5530128890446604 L-36.09623395517812,3.949975719069735 L-36.24725593249202,4.350635486985654 L-36.391040831483636,4.75452050163385 L-36.52741937619611,5.16115527481775 L-36.65623101007021,5.570061081088385 L-36.77732408496532,5.980756521341198 L-36.890556039692726,6.3927580895605045 L-36.995793567850846,6.805580742044374 L-37.09291277476506,7.218738468439814 L-37.13839190031412,7.42529098259618 L-37.18179932334716,7.631744863915989 L-37.22312226718553,7.8380393441085605 L-37.26234856870279,8.044113701801846 L-37.299466681904846,8.249907280415355 L-37.33446568132846,8.455359506014 L-37.36733526525704,8.660409905137623 L-37.398065758752956,8.864998122600944 L-37.4266481165052,9.069063939258703 L-37.45307392549188,9.27254728973075 L-37.47733540745651,9.475388280081884 L-37.49942542119748,9.677527205451216 L-37.51933746467004,9.878904567625897 L-37.53706567690011,10.079461092554 L-37.55260483970945,10.279137747791442 L-37.56595037925155,10.477875759877774 L-37.57709836735794,10.675616631635753 L-37.58604552269443,10.87230215938959 L-37.59278921172691,11.067874450096795 L-37.597327449496554,11.262275938388601 L-37.59965890020405,11.455449403513942 L-37.59978287760279,11.647337986181995 L-37.597699345200894,11.837885205298306 L-37.59340891627188,12.027034974589633 L-37.58691285367423,12.214731619112557 L-37.57821306947962,12.400919891640996 L-37.56731212441014,12.585544988927886 L-37.55421322708457,12.768552567836123 L-37.53892023307391,12.949888761334082 L-37.52143764376656,13.129500194351042 L-37.50177060504335,13.307333999487746 L-37.479924905762864,13.483337832577575 L-37.45590697605758,13.657459888093683 L-37.42972388544114,13.829648914397616 L-37.40138334072755,13.99985422882487 L-37.37089368376269,14.168025732602988 L-37.338263888968946,14.334113925597794 L-37.303503560703696,14.498069920883427 L-37.26662293043228,14.659845459131862 L-37.227632853716464,14.81939292281772 L-37.186544807019175,14.97666535023416 L-37.143370884326494,15.131616449315732 L-37.098123793587845,15.284200611264144 L-37.05081685297553,15.434372923972894 L-37.00146398696459,15.582089185246826 L-36.95007972223424,15.72730591581277 L-36.89667918339206,15.869980372117354 L-36.84127808852213,16.010070558908286 L-36.78389274455856,16.147535241595357 L-36.7245400424856,16.282333958387575 L-36.663237452365976,16.414427032202806 L-36.60000301819862,16.54377558234646 L-36.534855352607586,16.670341535955757 L-36.46781363136353,16.794087639206204 L-36.39889758773947,16.914977468277026 L-36.32812750670241,17.032975440072242 L-36.25552421894261,17.148046822694333 L-36.181109094742254,17.260157745667286 " />
			<path d="M-28.818891548988006,-4.689734117596816 L-28.977736908457764,-4.633455958853353 L-29.13709894295503,-4.571780387814585 L-29.29690428433595,-4.504735799086435 L-29.45707936036413,-4.432353059098577 L-29.61755042858229,-4.354665491893942 L-29.778243610262322,-4.271708863786793 L-29.939084924418054,-4.183521366896373 L-30.10000032186511,-4.09014360156378 " />
			<path d="M-34.90000032186512,-5.700112545363622 L-35.05133731610653,-5.6075962581015215 L-35.20261268533845,-5.510564966176906 L-35.35376482964533,-5.409058181107209 L-35.504732199289286,-5.30311723684798 L-35.655453319773386,-5.192785272961547 L-35.80586681687432,-5.078107217050421 L-35.9559114416342,-4.95912976646259 L-36.10552609530139,-4.835901369276188 L-36.25464985421015,-4.708472204571251 L-36.40322199458896,-4.576894161996599 L-36.55118201728753,-4.44122082064017 L-36.69846967241224,-4.301507427211403 L-36.84502498386014,-4.157810873544582 L-36.99078827374149,-4.010189673432233 L-37.13570018668076,-3.858703938798106 L-37.27970171398642,-3.7034153552193576 L-37.4227342176795,-3.5443871568079466 L-37.56473945437117,-3.381684100461454 L-37.70565959897972,-3.2153724394938283 L-37.84543726827714,-3.045519896656783 L-37.98401554425574,-2.8721956365628234 L-38.12133799730549,-2.6954702375211532 L-38.257348709192264,-2.5154156627979134 L-38.39199229582805,-2.3321052313124593 L-38.5252139298235,-2.1456135877816145 L-38.65695936281389,-1.9560166723240568 L-38.787174947549275,-1.763391689537202 L-38.915807659739805,-1.5678170770592024 L-39.04280511964747,-1.3693724736288235 L-39.16811561341532,-1.1681386866562464 L-39.29168811412553,-0.9641976593179917 L-39.41347230257778,-0.7576324371893222 L-39.53341858777943,-0.5485271344277702 L-39.651478127139136,-0.336966899521534 L-39.76760284635576,-0.12303788061667031 L-39.881745458994416,0.09317280956274754 L-39.99385948574169,0.3115771291872873 L-40.10389927333218,0.5320861431731148 L-40.211820013138706,0.7546100593967111 L-40.31757775941853,0.97905826525857 L-40.42112944720825,1.2053393645810022 L-40.52243290986001,1.4333612148250063 L-40.62144689621194,1.6630309646110812 L-40.718131087385764,1.894255091528652 L-40.81244611320483,2.126939440218762 L-40.90435356822576,2.3609892607145007 L-40.993816027377335,2.5963092470235556 L-41.08079706120011,2.83280357593718 L-41.16526125068063,3.07037594604978 L-41.2471742016742,3.308929616973217 L-41.3265025589103,3.5483674487298575 L-41.40321401957499,3.788591941308363 L-41.47727734646472,4.029505274366063 L-41.54866238070628,4.271009347061776 L-41.617340054037584,4.513005818002861 L-41.68328240064437,4.755396145290207 L-41.74646256854801,4.998081626644868 L-41.80685483053973,5.2409634396000255 L-41.86443459465681,5.483942681741872 L-41.919178414196566,5.726920410983055 L-41.971063997263904,5.969797685852288 L-42.02007021584869,6.212475605783692 L-42.06617711442914,6.454855351389486 L-42.10936591809778,6.696838224699628 L-42.149619040206694,6.9383256893520135 L-42.18692008952884,7.179219410716857 L-42.221253876932636,7.419421295938938 L-42.25260642156703,7.658833533881387 L-42.28096495655456,7.897358634954765 L-42.30631793419009,8.134899470815201 L-42.32865503064304,8.371359313915418 L-42.347967150161324,8.606641876892578 L-42.364246428775175,8.840651351776861 L-42.377486237499355,9.073292449004844 L-42.387681185032534,9.304470436221777 L-42.394827119952645,9.534091176856975 L-42.39892113240735,9.762061168456576 L-42.39996155529893,9.988287580758108 L-42.39794796496316,10.21267829349135 L-42.392881181341814,10.435141933890035 L-42.38476326764879,10.655587913899204 L-42.37359752952994,10.873926467063018 L-42.35938851371702,11.090068685078 L-42.342142006176246,11.303926553996842 L-42.32186502975219,11.515412990068029 L-42.298565841308104,11.724441875196668 L-42.272253928363654,11.93092809201212 L-42.24294000523156,12.134787558528123 L-42.210636008654745,12.335937262381293 L-42.17535509294556,12.534295294634084 L-42.13711162462938,12.72978088312844 L-42.09592117659443,12.922314425376491 L-42.0518005217505,13.111817520975036 L-42.00476762619892,13.298213003530467 L-41.95484164191671,13.481424972081225 L-41.90204289895779,13.661378822004979 L-41.84639289717455,13.838001275397895 L-41.787914297463,14.011220410913705 L-41.72663091253515,14.180965693050334 L-41.662567697222414,14.347168000872253 L-41.5957507383139,14.509759656156774 L-41.52620724393376,14.668674450952889 L-41.453965532461915,14.823847674541401 L-41.379055021002735,14.975216139785395 L-41.301506213406284,15.122718208860265 L-41.221350687847014,15.266293818352876 L-41.138621083964985,15.405884503719637 L-41.05335108957495,15.541433423093464 L-40.96557542694848,15.67288538043003 L-40.87532983867496,15.800186847983792 L-40.782651073107026,15.923285988104706 L-40.68757686939656,16.04213267434671 L-40.59014594212708,16.156678511879427 L-40.490397965549086,16.26687685719469 L-40.388373557424515,16.37268283709999 L-40.284114262487016,16.474053366991015 L-40.17766253552482,16.570947168395847 L-40.06906172409293,16.663324785783722 L-39.9583560508619,16.75114860263149 L-39.84559059561011,16.83438285674118 L-39.73081127686717,16.91299365480254 L-39.614064833215686,16.9869489861945 L-39.49539880425914,17.05621873602002 L-39.374861511263575,17.120774697369008 L-39.25250203748099,17.180590582804278 L-39.128370208162444,17.235642035065876 L-39.00251657026904,17.285906636989488 L-38.874992371889,17.33136392063475 " />
			<path d="M-38.87499237188897,17.331363920634757 L-38.717713277358534,17.38014604105384 L-38.558134535297185,17.421760095415316 L-38.39635226997213,17.456181016968884 L-38.23246393297054,17.483388071838483 L-38.06656824449846,17.503364871511597 L-37.8987651339154,17.516099382711083 L-37.72915567954059,17.521583934643573 L-37.55784204776725,17.519815223620057 L-37.384927431521334,17.51079431504592 L-37.21051598810197,17.494526642779178 L-37.034712776441005,17.47102200585732 L-36.85762369381944,17.440294562594723 L-36.67935541207886,17.402362822054236 L-36.50001531336632,17.35724963289801 L-36.31971142545131,17.304982169624296 L-36.13855235665392,17.245591916198563 L-35.956647230423215,17.17911464708874 L-35.774105619605365,17.105590405715972 L-35.59103748044106,17.025063480334037 L-35.40755308633197,16.937582377351674 L-35.22376296141619,16.843199792114202 L-35.03977781399261,16.741972577161768 L-34.85570846983439,16.63396170798353 L-34.671665805431644,16.51923224628829 L-34.487760681203625,16.397853300813775 L-34.30410387472051,16.26989798569808 L-34.12080601397515,16.135443376438474 L-33.937977510744915,15.994570463463997 L-33.75572849408374,15.847364103349841 L-33.57416874398455,15.693912967702945 L-33.39340762525184,15.534309489749507 L-33.21355402162443,15.368649808656695 L-33.03471627018801,15.197033711621982 L-32.857002096116844,15.019564573765079 L-32.680518547784246,14.836349295858637 L-32.50537193228059,14.647498239935208 L-32.3316677513779,14.453125162809283 L-32.15951063797953,14.253347147554443 L-31.989004293093217,14.0482845329769 L-31.820251423365487,13.838060841127884 L-31.653353679214987,13.622802702898603 L-31.48841159360208,13.4026397817425 L-31.32552452147156,13.17770469557086 L-31.16479057990494,12.948132936868728 L-31.006306589018386,12.714062791079304 L-30.850168013641913,12.475635253305963 L-30.69646890581493,12.232993943382088 L-30.545301848132812,11.986285019359826 L-30.396757897978603,11.73565708946997 L-30.250926532673468,11.481261122605904 L-30.107895595578874,11.223250357385588 L-29.96775124318306,10.96178020984635 L-29.830577893203568,10.697008179828064 L-29.69645817373719,10.429093756101153 L-29.565472873487867,10.158198320296494 L-29.43770089310262,9.8844850496952 L-29.31321919764473,9.608118818936676 L-29.192102770232864,9.329266100704322 L-29.074424566874065,9.048094865448645 L-28.96025547251777,8.764774480208082 L-28.849664258357354,8.479475606588673 L-28.74271754040496,8.192370097963874 L-28.639479739364482,7.903630895956514 L-28.54001304182696,7.613431926265227 L-28.444377362811693,7.321947993898117 L-28.352630309675668,7.029354677876756 L-28.264827147413055,6.735828225473947 L-28.181020765365624,6.441545446048956 L-28.101261645364197,6.146683604544166 L-28.025597831320283,5.851420314707306 L-27.95407490028621,5.555933432103557 L-27.886735935001212,5.260400946982055 L-27.823621497940017,4.965000877061154 L-27.764769606879504,4.6699111602972465 L-27.71021571199824,4.3753095477016135 L-27.6599926745226,4.08137349626981 L-27.61413074693239,3.788280062088243 L-27.572657554737912,3.4962057936821918 L-27.53559807983936,3.2053266256695845 L-27.502974645478666,2.91581777278456 L-27.47480690279282,2.6278536243346613 L-27.451111818976756,2.3416076391552436 L-27.431903667062954,2.057252241124351 L-27.417194017323887,1.774958715301024 L-27.406991730302522,1.4948971047495845 L-27.401302951475078,1.2172361081120489 L-27.4001311075492,0.9421429779903807 L-27.403476904399856,0.6697834201997699 L-27.411338326644128,0.4003214939536486 L-27.42371063885521,0.13391951304055638 L-27.44058638841486,-0.12926205194761398 L-27.46195541000257,-0.3890646702771079 L-27.487804831718773,-0.645331846565286 L-27.518119082838396,-0.8979092150476058 L-27.552879903190092,-1.146644632561773 L-27.59206635415547,-1.3913882701930786 L-27.635654831281748,-1.631992703525773 L-27.68361907850018,-1.8683130014460083 L-27.735930203941734,-2.100206813442883 L-27.79255669734049,-2.327534455355127 L-27.85346444901423,-2.550158993511582 L-27.91861677041082,-2.767946327214929 L-27.98797441620807,-2.980765269518937 L-28.061495607953585,-3.1884876262505752 L-28.1391360592306,-3.3909882732293912 L-28.22084900233443,-3.588145231637629 L-28.30658521644359,-3.7798397414957137 L-28.396293057268586,-3.965956333198834 L-28.489918488160495,-4.146382897071488 L-28.587405112660633,-4.321010750898187 L-28.688694208471652,-4.489734705389541 L-28.79372476282969,-4.65245312754436 L-28.902433509256138,-4.809068001869569 L-29.01475496566703,-4.959484989421085 L-29.130621473817005,-5.103613484630058 L-29.24996324005407,-5.241366669880287 L-29.372708377360723,-5.372661567803901 L-29.49878294865599,-5.49741909126382 L-29.628111011332354,-5.615564090992905 L-29.76061466300074,-5.727025400861034 L-29.89621408841602,-5.8317358807429525 L-30.034827607554718,-5.929632456960965 L-30.176371724815983,-6.020656160278133 L-30.32076117931626,-6.104752161419183 L-30.467908996247232,-6.181869804097575 L-30.617726539266183,-6.251962635528976 L-30.770123563887243,-6.314988434412674 L-30.925008271841214,-6.370909236364085 " />
			<path d="M-30.92500827184127,-6.3709092363641044 L-31.03662963964943,-6.406339459268018 L-31.149428223557678,-6.438147700497263 L-31.263369652463695,-6.466324267693336 L-31.378419207026358,-6.490860575113036 L-31.494541830245172,-6.511749146244661 L-31.611702138142547,-6.528983616086176 L-31.72986443054573,-6.54255873308472 L-31.848992701965095,-6.552470360736802 L-31.969050652565432,-6.558715478848763 L-32.09000169922698,-6.561292184457056 L-32.21180898669271,-6.560199692408094 L-32.334435398798604,-6.555438335597513 L-32.45784356978339,-6.547009564868723 L-32.58199589567434,-6.534915948570822 L-32.706854545745664,-6.519161171775986 L-32.83238147404599,-6.499750035156591 L-32.95853843099144,-6.4766884535223745 L-33.085286975020715,-6.44998345401814 L-33.21258848430875,-6.419643173982477 L-33.340404168535215,-6.385676858468244 L-33.468695080704414,-6.348094857425465 L-33.59742212901292,-6.306908622547576 L-33.726546088761296,-6.262130703781967 L-33.85602761430638,-6.213774745505848 L-33.98582725105033,-6.161855482368653 L-34.115905447462964,-6.106388734802197 L-34.246222567133564,-6.047391404200013 L-34.3767389008486,-5.984881467767282 L-34.50741467869159,-5.918877973042962 L-34.63821008216148,-5.849401032095777 L-34.769085256305836,-5.77647181539581 L-34.90000032186511,-5.700112545363629 " />
			<path d="M-47.80000032186513,8.899550442492313 L-47.80000032186513,147.47816492991666 " />
			<path d="M-47.80000032186513,147.47816492991666 L28.199999678134894,172.96933987341427 " />
			<path d="M12.200000035762805,29.02416235994247 L12.200000035762805,98.19870013369139 " />
			<path d="M12.045905047392976,98.29058463208791 L12.068479521844703,98.59785606758706 L12.087774629294339,98.90431377349319 L12.103787484822425,99.20991192960015 L12.116515694257332,99.51460484421793 L12.125957354533272,99.81834696100422 L12.132111053974777,100.12109286577582 L12.134975872507832,100.42279729329877 L12.134551381797385,100.72341513405611 " />
			<path d="M18.20000003576281,16.502181685943647 L18.052752664625334,16.59267690178475 L17.905593989798298,16.688505301642373 L17.758612654164804,16.789609162071706 L17.611897193785445,16.89592758188774 L17.46553598456751,17.00739651884988 L17.319617189030637,17.12394882823859 L17.174228703201,17.24551430330087 L17.029458103666038,17.372019717540162 L16.88539259482159,17.50338886882528 L16.742118956343223,17.63954262529169 L16.599723490913416,17.780398973007614 L16.458291972236033,17.92587306537615 L16.317909593369457,18.07587727424368 L16.178660915409488,18.230321242683804 L16.04062981655288,18.389111939424964 L15.903899441572268,18.552153714889005 L15.768552151732868,18.719348358806915 L15.634669475181115,18.890595159377014 L15.502332057835165,19.06579096392996 L15.371619614806821,19.244830241064086 L15.242610882384103,19.42760514421356 L15.115383570603477,19.614005576611113 L14.990014316440224,19.80391925760624 L14.866578637645194,19.997231790298827 L14.745150887255736,20.193826730447608 L14.625804208808207,20.39358565661179 L14.508610492279045,20.59638824148373 L14.393640330780933,20.802112324369567 L14.280962978040147,21.010633984774294 L14.170646306680696,21.221827617046813 L14.062756767340405,21.435566006040077 L13.957359348643521,21.65172040374075 L13.854517538054004,21.870160606822193 L13.754293283633052,22.090755035074075 L13.656746956723898,22.313370810661375 L13.561937315586384,22.537873838165016 L13.469921470003168,22.764128885355937 L13.380754846878936,22.991999664653935 L13.294491156853304,23.2213489152222 L13.211182361947536,23.45203848564811 L13.130878644264563,23.683929417160474 L13.053628375761175,23.916882027333113 L12.97947808911054,24.150755994224316 L12.908472449672676,24.38541044090154 L12.840654228589717,24.620704020300405 L12.776064277022147,24.85649500036687 L12.71474150154162,25.09264134943134 L12.656722840695085,25.329000821763213 L12.602043242754373,25.56543104325441 L12.55073564466468,25.8017895971802 L12.502830952204587,26.037934109985716 L12.458358021369552,26.27372233704645 L12.417343640990168,26.509012248351116 L12.379812516595543,26.743662114055198 L12.345787255531633,26.977530589853718 L12.315288353343423,27.210476802121764 L12.288334181429159,27.442360432771487 L12.26494097597412,27.673041803774463 L12.245122828170548,27.902381961298538 L12.228891675729624,28.130242759408397 L12.216257295690664,28.35648694327953 L12.207227298531771,28.580978231875385 L12.20180712358558,28.803581400037974 L12.200000035762805,29.02416235994243 " />
			<path d="M32.0000000357628,8.273451528744417 L18.200000035762805,16.502181685943647 " />
			<path d="M38.0000000357628,13.640014674743925 L37.99699869581451,13.358933838166745 L37.987997678650125,13.08171351471633 L37.973005989307104,12.808631048536423 L37.95203862617083,12.539959644065325 L37.9251165659695,12.275968092709444 L37.89226674278804,12.016920503931818 L37.853522021121975,11.763076041024677 L37.80892116299828,11.514688661830407 L37.75850878919604,11.272006864670288 L37.702335334605706,11.035273439735176 L37.64045699777171,10.804725226186848 L37.572935684668806,10.580592875213076 L37.49983894676846,10.363100619273427 L37.42123991345719,10.152466047766634 L37.337217218874514,9.948899889344016 L37.24785492324371,9.752605801086697 L37.20119915696386,9.657247442185891 L37.15324242877402,9.563780164757581 L37.1039967339613,9.472227347519809 L37.05347439021854,9.382611890331866 L37.00168803456333,9.294956208466385 L36.948650620177155,9.209282227002682 L36.894375413165456,9.125611375342704 L36.83887598923939,9.043964581850943 L36.7821662303202,8.964362268619675 L36.72426032106695,8.886824346360845 L36.66517274532857,8.811370209425846 L36.60491828252104,8.738018730954474 L36.543512003930644,8.66678825815423 L36.48096926894426,8.597696607711176 L36.41730572120751,8.53076106133353 L36.35253728471193,8.46599836142899 L36.28668015981186,8.403424706917045 L36.21975081917236,8.343055749177148 L36.15176600364892,8.284906588133902 L36.08274271810011,8.228991768480151 L36.012698227134194,8.175325276038944 L35.94165005079081,8.123920534265306 L35.869615960158725,8.074790400888679 L35.79661397293075,8.027947164696831 L35.7226623488971,7.983402542462111 L35.64777958537807,7.9411676760107515 L35.571984412597345,7.901253129436 L35.49529578899711,7.863668886455761 L35.41773289649597,7.828424347915368 L35.33931513569106,7.795528329436202 L35.26006212100542,7.764989059210659 L35.17999367578193,7.736814175944053 " />
			<path d="M35.17999367578188,7.736814175944039 L35.090696581535354,7.708469997620908 L35.00045771440875,7.683023404637511 L34.90930457128395,7.660482150880652 L34.817264927633815,7.640853104944892 L34.72436682905876,7.6241422480395915 L34.630638582740865,7.61035467216638 L34.536108748818314,7.599494578567546 L34.44080613168283,7.5915652764458805 L34.344759771202554,7.58656918195631 L34.24799893387332,7.584507817469676 L34.150553103900734,7.585381811108846 L34.05245197421602,7.5891908965573105 L33.95372543742819,7.5959339131403425 L33.85440357671543,7.6056088061786635 L33.75451665665837,7.618212627614531 L33.654095114018105,7.633741536910048 L33.553169548461746,7.6521908022174205 L33.451770713238325,7.67355480182081 L33.3499295058079,7.697827025849339 L33.24767695842673,7.725000078260724 L33.14504422869137,7.755065679094949 L33.042062590044566,7.78801466699726 L32.93876342224586,7.823837002009748 L32.835178201809796,7.862521768630643 L32.731338492414636,7.9040571791404 L32.62727593528453,7.948430577193564 L32.52302223954805,7.995628441675311 L32.41860917257602,8.045636390821496 L32.31406855030163,8.098439186600952 L32.20943222752572,8.1540207393587 L32.104732088210234,8.21236411271867 L32.00000003576281,8.273451528744419 " />
			<path d="M38.0000000357628,82.9581219772374 L38.0000000357628,13.640014674743913 " />
			<path d="M-41.80000032186513,-3.6224302315065042 L-41.9472476930026,-3.5319350156654057 L-42.094406367829635,-3.4361066158077804 L-42.24138770346313,-3.335002755378447 L-42.38810316384249,-3.228684335562413 L-42.53446437306042,-3.1172153986002744 L-42.680383168597295,-3.0006630892115638 L-42.82577165442693,-2.879097614149284 L-42.970542253961895,-2.7525921999099907 L-43.114607762806344,-2.6212230486248744 L-43.257881401284706,-2.4850692921584647 L-43.40027686671451,-2.344212944442538 L-43.5417083853919,-2.198738852074002 L-43.682090764258476,-2.048734643206471 L-43.821339442218445,-1.8942906747663493 L-43.95937054107505,-1.7354999780251905 L-44.09610091605566,-1.5724582025611484 L-44.23144820589506,-1.4052635586432372 L-44.36533088244682,-1.2340167580731407 L-44.497668299792764,-1.0588209535201925 L-44.62838074282111,-0.8797816763860657 L-44.75738947524383,-0.6970067732365921 L-44.884616787024456,-0.510606340839038 L-45.00998604118771,-0.3206926598439157 L-45.13342171998274,-0.1273801271513273 L-45.2548494703722,0.06921481299745391 L-45.37419614881973,0.26897373916163936 L-45.491389865348886,0.4717763240335753 L-45.606360026847,0.6775004069194122 L-45.71903737958778,0.8860220673241397 L-45.82935405094724,1.0972156995966582 L-45.93724359028753,1.3109540885899236 L-46.04264100898441,1.5271084862905973 L-46.14548281957393,1.7455486893720407 L-46.24570707399488,1.9661431176239237 L-46.34325340090403,2.1887588932112227 L-46.43806304204155,2.4132619207148625 L-46.53007888762476,2.639516967905785 L-46.619245510748996,2.8673877472037836 L-46.70550920077463,3.096736997772047 L-46.7888179956804,3.327426568197956 L-46.86912171336337,3.559317499710321 L-46.94637198186676,3.79227010988296 L-47.0205222685174,4.026144076774163 L-47.09152790795525,4.260798523451388 L-47.15934612903822,4.496092102850252 L-47.22393608060579,4.731883082916718 L-47.28525885608631,4.968029431981186 L-47.343277516932844,5.20438890431306 L-47.39795711487356,5.440819125804257 L-47.44926471296325,5.677177679730049 L-47.49716940542335,5.9133221925355635 L-47.54164233625838,6.149110419596298 L-47.582656716637764,6.384400330900963 L-47.62018784103239,6.619050196605043 L-47.6542131020963,6.852918672403564 L-47.684712004284506,7.0858648846716115 L-47.711666176198776,7.317748515321332 L-47.73505938165381,7.54842988632431 L-47.75487752945739,7.777770043848385 L-47.77110868189831,8.005630841958245 L-47.78374306193727,8.23187502582938 L-47.79277305909616,8.45636631442523 L-47.79819323404235,8.678969482587819 L-47.80000032186513,8.899550442492277 " />
			<path d="M-28.000000321865123,-11.851160388705736 L-41.80000032186512,-3.6224302315065082 " />
			<path d="M-5.999999964237209,-1.1180339767547025 L-5.999999964237209,68.20007332573879 " />
			<path d="M-8.82000632421813,-7.021234475554573 L-8.739937878994597,-6.993059592287956 L-8.660684864308958,-6.96252032206241 L-8.582267103504048,-6.929624303583246 L-8.504704211002904,-6.894379765042851 L-8.428015587402664,-6.85679552206261 L-8.352220414621945,-6.8168809754878605 L-8.27733765110291,-6.774646109036503 L-8.20338602706926,-6.730101486801782 L-8.130384039841292,-6.683258250609935 L-8.058349949209202,-6.63412811723331 L-7.987301772865824,-6.582723375459672 L-7.917257281899908,-6.529056883018461 L-7.848233996351089,-6.4731420633647065 L-7.780249180827648,-6.414992902321464 L-7.713319840188154,-6.354623944581567 L-7.6474627152880865,-6.292050290069621 L-7.582694278792501,-6.227287590165085 L-7.51903073105576,-6.160352043787437 L-7.456487996069371,-6.091260393344388 L-7.395081717478974,-6.02002992054414 L-7.334827254671441,-5.9466784420727645 L-7.275739678933063,-5.871224305137767 L-7.217833769679817,-5.793686382878937 L-7.161124010760626,-5.714084069647669 L-7.105624586834558,-5.63243727615591 L-7.051349379822858,-5.548766424495936 L-6.9983119654366845,-5.4630924430322345 L-6.946525609781474,-5.375436761166748 L-6.896003266038709,-5.2858213039788 L-6.84675757122599,-5.194268486741031 L-6.798800843036157,-5.100801209312722 L-6.752145076756303,-5.005442850411917 L-6.662782781125497,-4.809148762154603 L-6.5787600865428235,-4.60558260373198 L-6.500161053231551,-4.3949480322251855 L-6.427064315331207,-4.177455776285539 L-6.359543002228307,-3.9533234253117695 L-6.29766466539431,-3.7227752117634387 L-6.241491210803972,-3.486041786828324 L-6.191078837001729,-3.243359989668209 L-6.146477978878039,-2.9949726104739427 L-6.107733257211975,-2.7411281475667972 L-6.074883434030508,-2.4820805587891672 L-6.047961373829176,-2.21808900743329 L-6.0269940106929045,-1.9494176029621904 L-6.0120023213498905,-1.6763351367822845 L-6.003001304185504,-1.3991148133318707 L-5.99999996423721,-1.11803397675477 " />
			<path d="M-22.000000321865123,-6.484597242706229 L-22.003001661813418,-6.7656780792834095 L-22.0120026789778,-7.042898402733823 L-22.026994368320818,-7.315980868913731 L-22.04796173145709,-7.58465227338483 L-22.074883791658422,-7.84864382474071 L-22.107733614839887,-8.107691413518335 L-22.14647833650595,-8.361535876425478 L-22.191079194629644,-8.609923255619748 L-22.241491568431886,-8.852605052779866 L-22.29766502302222,-9.089338477714978 L-22.359543359856218,-9.319886691263306 L-22.42706467295912,-9.544019042237078 L-22.500161410859466,-9.761511298176728 L-22.578760444170737,-9.97214586968352 L-22.662783138753408,-10.175712028106137 L-22.752145434384214,-10.372006116363458 L-22.79880120066407,-10.467364475264263 L-22.846757928853904,-10.560831752692573 L-22.896003623666623,-10.652384569930346 L-22.946525967409386,-10.742000027118287 L-22.998312323064592,-10.82965570898377 L-23.051349737450767,-10.915329690447473 L-23.10562494446247,-10.999000542107451 L-23.16112436838854,-11.080647335599211 L-23.21783412730773,-11.16024964883048 L-23.275740036560975,-11.23778757108931 L-23.334827612299357,-11.313241708024309 L-23.395082075106885,-11.38659318649568 L-23.45648835369728,-11.457823659295924 L-23.51903108868367,-11.526915309738978 L-23.582694636420413,-11.593850856116624 L-23.647463072915997,-11.658613556021164 L-23.713320197816063,-11.72118721053311 L-23.78024953845556,-11.781556168273006 L-23.848234353979006,-11.839705329316253 L-23.91725763952782,-11.895620148970004 L-23.98730213049373,-11.949286641411211 L-24.05835030683711,-12.000691383184849 L-24.130384397469204,-12.049821516561476 L-24.203386384697172,-12.096664752753323 L-24.277338008730823,-12.141209374988044 L-24.352220772249858,-12.183444241439403 L-24.42801594503058,-12.223358788014155 L-24.504704568630814,-12.260943030994394 L-24.582267461131956,-12.296187569534787 L-24.660685221936866,-12.329083588013953 L-24.73993823662251,-12.359622858239495 L-24.820006681845996,-12.387797741506102 " />
			<path d="M-24.820006681846042,-12.387797741506116 L-24.909303776092568,-12.416141919829247 L-24.99954264321917,-12.441588512812643 L-25.090695786343982,-12.464129766569503 L-25.18273542999411,-12.483758812505263 L-25.275633528569163,-12.500469669410563 L-25.36936177488706,-12.514257245283774 L-25.46389160880961,-12.525117338882609 L-25.5591942259451,-12.533046641004274 L-25.65524058642537,-12.538042735493844 L-25.752001423754606,-12.540104099980478 L-25.84944725372719,-12.539230106341309 L-25.94754838341191,-12.535421020892844 L-26.04627492019974,-12.528678004309812 L-26.1455967809125,-12.519003111271491 L-26.245483700969558,-12.506399289835624 L-26.34590524360982,-12.490870380540107 L-26.446830809166176,-12.472421115232734 L-26.5482296443896,-12.451057115629345 L-26.650070851820026,-12.426784891600816 L-26.752323399201195,-12.399611839189431 L-26.854956128936557,-12.369546238355206 L-26.95793776758336,-12.336597250452895 L-27.061236935382066,-12.300774915440407 L-27.16482215581813,-12.262090148819512 L-27.26866186521329,-12.220554738309755 L-27.372724422343396,-12.17618134025659 L-27.476978118079877,-12.128983475774843 L-27.581391185051906,-12.078975526628659 L-27.6859318073263,-12.026172730849202 L-27.790568130102212,-11.970591178091455 L-27.89526826941769,-11.912247804731484 L-28.000000321865116,-11.851160388705736 " />
			<path d="M-5.999999964237207,68.2000733257388 L-5.975500669969141,68.20829063884642 " />
			<path d="M-5.975500669969124,68.20829063884642 L-6.008230651468841,68.64849420091934 L-6.033528742668802,69.09178750106584 L-6.051386375509493,69.53802040292388 L-6.061797501895827,69.98704177453527 L-6.0647585957455465,70.43869953953163 L-6.060268654183451,70.89284072864024 L-6.048329197881051,71.34931153149229 L-6.028944270541539,71.807957348716 L-6.002120437530257,72.26862284429697 L-5.967866783651113,72.73115199818795 L-5.926194910069688,73.19538815915041 L-5.877118930384144,73.66117409780978 L-5.820655465845112,74.12835205990653 L-5.756823639726415,74.596763819725 L-5.685645070848251,75.066250733682 L-5.607143866255287,75.53665379405672 L-5.521346613051977,76.00781368284426 L-5.428282369397925,76.47957082571399 L-5.3279826546663696,76.95176544605485 L-5.220481438769044,77.42423761908918 L-5.105815130651157,77.89682732603663 L-4.984022565960208,78.36937450830997 L-4.855144993893026,78.84171912172445 L-4.719226063225291,79.31370119070213 L-4.576311807528397,79.78516086245307 L-4.426450629578627,80.25593846111495 L-4.269693284963898,80.7258745418327 L-4.106092864893652,81.19480994475994 L-3.935704778217721,81.6625858489639 L-3.758586732660225,82.12904382621548 L-3.574798715274879,82.59402589464644 L-3.3844029721283686,83.0573745722552 L-3.187463987218562,83.51893293024366 L-2.9840484606348294,83.97854464616637 L-2.7742252859678,84.43605405687441 L-2.5580655269761667,84.89130621123613 L-2.3356423935185635,85.3441469226165 L-2.107031216758527,85.79442282109778 L-1.8723094236510587,86.24198140542339 L-1.6315565107193333,86.68667109464761 L-1.3848540171305057,87.12834127947373 L-1.1322854970796872,87.56684237326296 L-0.8739364914914791,88.00202586269701 L-0.6098944990486412,88.43374435807725 L-0.3402489465576668,88.86185164324317 L-0.0650911586613514,89.2862027250935 L0.21548567309139344,89.70665388269306 L0.5013865218080404,90.12306271594875 L0.792514557436526,90.53528819383816 L1.0887711795600588,90.94319070217452 L1.3900560507914914,91.34663209089186 L1.6962671307559987,91.74547572083415 L2.007300710650517,92.13958651003286 L2.3230514483682754,92.52883097945704 L2.6434124041764644,92.91307729822054 L2.9682750769350257,93.29219532823103 L3.2975294408442632,93.66605666826568 L3.6310639827088096,94.0345346974586 L3.968765739705379,94.39750461818534 L4.310520337641449,94.75484349832985 L4.656212029692009,95.10643031291954 L5.005723735601125,95.45214598511467 L5.358937081335181,95.79187342653758 L5.715732439174252,96.1254975769288 L6.075988968228119,96.45290544311607 L6.43958465536314,96.7739861372833 L6.806396356526147,97.08863091452656 L7.176299838451387,97.3967332096842 L7.549169820736324,97.69818867342876 L7.924880018272125,97.99289520760847 L8.303303184014403,98.2807529998262 L8.684311152079765,98.5616645572444 L9.067774881153543,98.83553473960427 L9.453564498194034,99.10227079144836 L9.841549342418412,99.36178237353528 L10.231598009555475,99.61398159343616 L10.623578396350144,99.8587830353025 L11.017357745304743,100.09610378879499 L11.412802689641829,100.32586347716412 L11.80977929847342,100.5479842844723 L12.208153122161207,100.7623909819491 L12.60778923785254,100.96901095346976 L13.008552295176608,101.1677742201494 L13.410306562085474,101.35861346404347 L13.812915970824339,101.54146405094752 L14.21624416401552,101.71626405228761 L14.620154540840527,101.88295426609457 L15.024510303304561,102.04147823705478 L15.429174502567816,102.19178227563063 L15.834010085327872,102.33381547624441 L16.23887994023747,102.46752973451913 L16.64364694434189,102.59287976357072 L16.845949034674,102.65240481418901 L17.048174009520366,102.70982310934598 L17.250304745926062,102.76512978727378 L17.4523241289156,102.8183201650011 L17.654215052942156,102.86938973874975 L17.85596042333583,102.91833418431588 L18.057543157751155,102.96514935743625 L18.258946187613564,103.00983129413905 L18.460152459564515,103.05237621107958 L18.66114493690552,103.09278050586056 L18.86190660104073,103.13104075733725 L19.062420452917838,103.16715372590699 L19.2626695144675,103.20111635378362 L19.462636830040964,103.23292576525634 L19.662305467845645,103.26257926693319 L19.861658521378835,103.29007434796914 L20.060679110859272,103.31540868027871 L20.259350384656365,103.33858011873302 L20.457655520716997,103.3595867013415 L20.655577727989982,103.37842664941799 L20.853100247847824,103.3950983677313 L21.050206355505665,103.40960044464038 L21.2468793614374,103.42193165221374 L21.44310261278888,103.43209094633355 L21.638859494787944,103.44007746678389 L21.834133432151248,103.44589053732372 L22.028907890487677,103.44952966574408 L22.22316637769841,103.45099454390977 L22.41689244537338,103.45028504778548 L22.610069690183977,103.4474012374462 L22.80268175527192,103.44234335707225 L22.994712331634272,103.4351118349285 L23.18614515950442,103.42570728332821 L23.376964029728786,103.41413049858107 L23.56715278513927,103.4003824609259 L23.756695321921356,103.3844643344475 L23.945575590977704,103.36637746697825 L24.133777599287043,103.34612338998384 L24.321285411258295,103.32370381843371 L24.508083150079933,103.29912065065575 L24.694154999064356,103.27237596817562 L24.87948520298707,103.24347203554046 L25.064058069420724,103.21241130012721 L25.247857970063855,103.17919639193532 L25.4308693420642,103.14383012336404 L25.61307668933643,103.1063154889744 L25.79446458387421,103.06665566523552 L25.975017667056562,103.02485401025575 L26.154720650948356,102.98091406349826 L26.33355831959475,102.9348395454814 L26.51151553030953,102.8866343574636 L26.688577214957323,102.83630258111315 L26.86472838122949,102.78384847816248 L27.039954113913538,102.72927649004737 L27.214239576155975,102.67259123753088 L27.38757001071866,102.61379752031206 L27.559930741228357,102.55290031661961 L27.731307173419356,102.48990478279026 L27.901684796369246,102.42481625283227 L28.071049183727567,102.35764023797375 L28.2393859949374,102.28838242619598 L28.406680976449564,102.21704868175183 L28.572919962929497,102.14364504466917 L28.738088878456686,102.06817773023954 L28.902173737716552,101.99065312849176 L29.065160647184598,101.91107780365093 L29.227035806302787,101.82945849358265 L29.387785508648076,101.74580210922247 L29.547396143093053,101.66011573399071 L29.705854194958363,101.57240662319268 L29.86314624715702,101.48268220340442 L30.01925898133033,101.3909500718439 " />
			<path d="M30.019258981330488,101.3909500718438 L30.272791513725654,101.23612395993494 L30.52305642813505,101.0759500743469 L30.769996687764195,100.91046491961737 L31.01355601352632,100.73970621075235 L31.253678896868664,100.56371286463082 L31.490310612423208,100.38252499113527 L31.723397230478874,100.19618388401048 L31.952885629272437,100.00473201145243 L32.178723507095256,99.80821300642951 L32.40085939421315,99.60667165673838 L32.61924266459663,99.4001538947966 L32.833823547458834,99.18870678717425 L33.044553138598644,98.97237852386735 L33.25138341154614,98.75121840731491 L33.4542672285082,98.5252768411628 L33.653158351111365,98.29460531877638 L33.84801145093992,98.05925641150486 L34.03878211986644,97.8192837567 L34.2254268801727,97.57474204549192 L34.407903194458434,97.32568701032457 L34.58616947533591,97.0721754122541 L34.7601850949079,96.81426502801258 L34.92991039402699,96.5520146368405 L35.095306691334194,96.28548400709047 L35.25633629207456,96.01473388260581 L35.41296249668811,95.73982596887667 L35.565149609173815,95.46082291897692 L35.71286294522494,95.17778831928521 L35.856068840133794,94.89078667499331 L35.99473465646411,94.59988339540492 L36.12882879148928,94.3051447790286 L36.25832068439485,94.00663799846792 L36.38318082324343,93.70443108511249 L36.50338075170069,93.39859291363314 L36.61889307552068,93.08919318628504 L36.72969146878919,92.7763024170222 L36.8357506799235,92.45999191542683 L36.937046537427406,92.14033377045763 L37.03355595540004,91.81740083402016 L37.12525693879728,91.49126670436358 L37.21212858844452,91.16200570930714 L37.29415110579973,90.82969288930045 L37.37130579746565,90.49440398032135 L37.443575079450135,90.1562153966153 L37.51094248117363,89.81520421328001 L37.5733926492229,89.47144814869972 L37.6309113508502,89.12502554683269 L37.68348547721695,88.77601535935611 L37.73110304638134,88.42449712767265 L37.7737532060291,88.07055096478253 L37.81142623594677,87.71425753702519 L37.84411355023698,87.3556980456951 L37.8718076992753,86.99495420853552 L37.89450237140797,86.63210824111444 L37.91219239439038,86.26724283808733 L37.92487373656591,85.90044115435047 L37.93254350778468,85.53178678608953 L37.935199960062306,85.16136375172744 L37.93284248797824,84.78925647277623 L37.92547162881375,84.41554975459682 L37.91308906242947,84.0403287670714 L37.895697610882564,83.66367902519274 L37.873301237783544,83.28568636957483 L37.845905047392975,82.90643694688937 " />
			<path d="M37.84590504739297,82.90643694688936 L38.0000000357628,82.95812197723741 " />
			<path d="M53.99999967813489,19.006577700791365 L53.99999967813489,169.27034578877726 " />
			<path d="M53.9999996781349,169.27034578877726 L-22.00000032186511,143.77917084527965 " />
			<path d="M-22.000000321865123,143.77917084527965 L-22.000000321865123,-6.484597242706229 " />
			<path d="M51.17999331815397,13.103377201991483 L51.2600617633775,13.1315520852581 L51.33931477806314,13.162091355483646 L51.41773253886805,13.19498737396281 L51.4952954313692,13.230231912503205 L51.571984054969434,13.267816155483446 L51.647779227750156,13.307730702058196 L51.72266199126919,13.349965568509553 L51.79661361530284,13.394510190744274 L51.86961560253081,13.441353426936121 L51.9416496931629,13.490483560312747 L52.012697869506276,13.541888302086384 L52.082742360472196,13.595554794527596 L52.15176564602101,13.65146961418135 L52.21975046154445,13.709618775224593 L52.28667980218395,13.76998773296449 L52.35253692708402,13.832561387476435 L52.4173053635796,13.897324087380971 L52.48096891131634,13.96425963375862 L52.54351164630273,14.033351284201668 L52.60491792489313,14.104581757001917 L52.66517238770066,14.177933235473292 L52.72425996343904,14.25338737240829 L52.78216587269228,14.33092529466712 L52.83887563161147,14.410527607898388 L52.894375055537544,14.492174401390146 L52.94865026254924,14.57584525305012 L53.00168767693542,14.661519234513822 L53.05347403259063,14.74917491637931 L53.10399637633339,14.838790373567257 L53.15324207114611,14.930343190805026 L53.20119879933594,15.023810468233336 L53.247854565615796,15.11916882713414 L53.3372168612466,15.315462915391453 L53.421239555829274,15.519029073814076 L53.49983858914055,15.729663645320871 L53.572935327040895,15.947155901260517 L53.640456640143796,16.171288252234287 L53.702334976977795,16.40183646578262 L53.75850843156813,16.638569890717733 L53.80892080537037,16.88125168787785 L53.853521663494064,17.129639067072112 L53.89226638516013,17.38348352997926 L53.92511620834159,17.64253111875689 L53.95203826854292,17.906522670112768 L53.9730056316792,18.175194074583867 L53.98799732102221,18.44827654076377 L53.9969983381866,18.725496864214186 L53.99999967813489,19.006577700791286 " />
			<path d="M-22.000000321865098,143.7791708452795 L-47.80000032186513,147.47816492991672 " />
			<path d="M28.19999967813479,172.96933987341484 L53.99999967813482,169.27034578877763 " />
			<path d="M37.84590504739297,82.90643694688937 L12.045905047392967,98.29058463208793 " />
			<path d="M-3.523000351849991,12.126791307677552 L-3.5264475163937545,12.039724262943475 L-3.5376655536431953,11.953095547272007 L-3.556520708986238,11.86793804992903 L-3.58278816912155,11.785267118588038 L-3.616154742546689,11.706068453162976 L-3.6353790565268773,11.668068242799936 L-3.65622259379494,11.631286353136478 L-3.6786231777010174,11.595832505216842 L-3.7025139868968795,11.561812458512653 L-3.727823754665216,11.529327695440495 L-3.7544769815095496,11.498475118638018 L-3.7823941603706044,11.469346761901619 L-3.811492013797305,11.442029515647953 L-3.841683742364923,11.41660486771824 L-3.872879283599339,11.393148660298563 L-3.904985580635034,11.371730863681249 L-3.9379068598054094,11.352415367542214 L-3.9715449163373715,11.335259790356906 L-4.005799407297952,11.32031530752334 L-4.040568150919097,11.307626498704963 L-4.075747431407736,11.297231214848708 L-4.111232308331873,11.289160465274932 L-4.146916929659802,11.28343832517605 L-4.182694847518633,11.280081863799802 L-4.218459335730234,11.279101093531372 L-4.254103708177355,11.280498940026266 L-4.289521637050245,11.284271233483027 " />
			<path d="M-4.289521637050249,11.284271233483027 L-4.3522731214769115,11.296979669329161 L-4.413348117382022,11.317195187332217 L-4.472158439168027,11.344723101002899 L-4.528137711287133,11.379298301484269 L-4.580746822747452,11.420587810694965 L-4.629479119046554,11.468193988090146 L-4.673865281531296,11.521658360157314 L-4.7134778471930066,11.580466035766863 L-4.74793532536993,11.644050664855126 L-4.776905871710851,11.71179989268509 L-4.800110484017594,11.783061257157257 L-4.817325689188714,11.857148472376336 L-4.828385695387624,11.933348037959576 L-4.833183988708615,12.01092611043549 L-4.8316743589639914,12.089135570557646 L-4.823871344713441,12.167223218471431 L-4.80985009324976,12.24443702744038 L-4.789745636889338,12.320033386274766 L-4.7637515925371385,12.393284260713834 L-4.732118297050064,12.46348420479374 L-4.695150396356175,12.529957154677799 L-4.6532039115478625,12.592062939520819 L-4.606682810204111,12.649203446664282 L-4.556035115961883,12.700828381788224 L-4.501748593803577,12.746440568546333 L-4.444346052613609,12.78560073664598 L-4.384380310243057,12.817931752261234 L-4.322428869571563,12.843122250037789 L-4.259088356838893,12.860929631711533 L-4.19496877580811,12.871182402462441 L-4.130687633095868,12.87378182250345 L-4.066863991246138,12.868702857998572 " />
			<path d="M-4.066863991246133,12.868702857998572 L-4.011117274140399,12.857806280717334 L-3.9566373156474635,12.840985779023189 L-3.9038371801610894,12.81836888514133 L-3.85311719573876,12.790127079260408 L-3.804861918833831,12.75647448937809 L-3.75943721860722,12.717666267792996 L-3.7171875029252317,12.673996656552394 L-3.678433107075879,12.625796756523318 L-3.6434678650023224,12.573432017001906 L-3.6125568814682105,12.517299464894625 L-3.5859345220462657,12.457824694479593 L-3.56380263616992,12.395458640571466 L-3.5463290267207324,12.330674159555631 L-3.5336461777551076,12.263962444214098 L-3.5258502500166315,12.19582929952574 L-3.523000351849991,12.126791307677554 " />
			<path d="M-4.920682775985865,11.37296730035271 L-4.983434260412528,11.385675736198845 L-5.044509256317639,11.405891254201903 L-5.103319578103642,11.433419167872586 L-5.159298850222749,11.467994368353956 L-5.211907961683067,11.509283877564654 L-5.2606402579821685,11.556890054959837 L-5.30502642046691,11.610354427027005 L-5.344638986128619,11.669162102636554 L-5.379096464305543,11.732746731724818 L-5.408067010646462,11.800495959554782 L-5.431271622953204,11.87175732402695 L-5.448486828124324,11.945844539246028 L-5.459546834323233,12.022044104829268 L-5.464345127644223,12.099622177305182 L-5.462835497899598,12.17783163742734 L-5.455032483649048,12.255919285341124 L-5.441011232185365,12.333133094310073 L-5.420906775824942,12.408729453144458 L-5.394912731472742,12.481980327583527 L-5.3632794359856675,12.552180271663433 L-5.326311535291778,12.61865322154749 L-5.284365050483464,12.68075900639051 L-5.237843949139712,12.737899513533973 L-5.187196254897484,12.789524448657911 L-5.132909732739177,12.835136635416022 L-5.075507191549208,12.874296803515668 L-5.015541449178656,12.90662781913092 L-4.953590008507161,12.931818316907474 L-4.8902494957744915,12.949625698581217 L-4.826129914743708,12.959878469332125 L-4.761848772031466,12.962477889373131 L-4.698025130181737,12.957398924868254 " />
			<path d="M-5.9999999642372055,-1.1180339767546916 L-22.000000321865127,-6.484597242706236 " />
			<path d="M53.99999967813489,19.006577700791365 L38.0000000357628,13.64001467474392 " />
			<path d="M-24.820006681846042,-12.38779774150612 L-8.82000632421812,-7.021234475554575 " />
			<path d="M35.17999367578189,7.736814175944036 L51.179993318153976,13.103377201991481 " />
			<path d="M-4.06686399124613,12.868702857998578 L-4.698025130181736,12.957398924868249 " />
			<path d="M-4.289521637050254,11.284271233483032 L-4.92068277598586,11.372967300352704 " />

       </g>
    </g>
    
</svg>
